<mxfile host="app.diagrams.net" modified="2023-05-17T18:54:31.578Z" agent="Mozilla/5.0 (Windows NT 10.0; Win64; x64) AppleWebKit/537.36 (KHTML, like Gecko) Chrome/113.0.0.0 Safari/537.36" etag="wgOynUKfq0ji6DVnAxFD" version="21.3.2" type="device">
  <diagram name="PÃ¡gina-1" id="EJl1tC74jtopaxx9l2ul">
    <mxGraphModel dx="2193" dy="1927" grid="1" gridSize="10" guides="1" tooltips="1" connect="1" arrows="1" fold="1" page="1" pageScale="1" pageWidth="827" pageHeight="1169" math="0" shadow="0">
      <root>
        <mxCell id="0" />
        <mxCell id="1" parent="0" />
        <mxCell id="d1q4TfHmEtqEioEGsZWX-1" value="WebApp" style="swimlane;fontStyle=1;align=center;verticalAlign=top;childLayout=stackLayout;horizontal=1;startSize=26;horizontalStack=0;resizeParent=1;resizeParentMax=0;resizeLast=0;collapsible=1;marginBottom=0;whiteSpace=wrap;html=1;" parent="1" vertex="1">
          <mxGeometry x="-90" y="40" width="160" height="190" as="geometry" />
        </mxCell>
        <mxCell id="d1q4TfHmEtqEioEGsZWX-2" value="&lt;div&gt;-envios&lt;/div&gt;&lt;div&gt;-GeneradorDeUsuarios&lt;br&gt;&lt;/div&gt;&lt;div&gt;-gps&lt;/div&gt;&lt;div&gt;-organizaciones&lt;/div&gt;" style="text;strokeColor=none;fillColor=none;align=left;verticalAlign=top;spacingLeft=4;spacingRight=4;overflow=hidden;rotatable=0;points=[[0,0.5],[1,0.5]];portConstraint=eastwest;whiteSpace=wrap;html=1;" parent="d1q4TfHmEtqEioEGsZWX-1" vertex="1">
          <mxGeometry y="26" width="160" height="84" as="geometry" />
        </mxCell>
        <mxCell id="d1q4TfHmEtqEioEGsZWX-3" value="" style="line;strokeWidth=1;fillColor=none;align=left;verticalAlign=middle;spacingTop=-1;spacingLeft=3;spacingRight=3;rotatable=0;labelPosition=right;points=[];portConstraint=eastwest;strokeColor=inherit;" parent="d1q4TfHmEtqEioEGsZWX-1" vertex="1">
          <mxGeometry y="110" width="160" height="8" as="geometry" />
        </mxCell>
        <mxCell id="d1q4TfHmEtqEioEGsZWX-4" value="+ method(type): type" style="text;strokeColor=none;fillColor=none;align=left;verticalAlign=top;spacingLeft=4;spacingRight=4;overflow=hidden;rotatable=0;points=[[0,0.5],[1,0.5]];portConstraint=eastwest;whiteSpace=wrap;html=1;" parent="d1q4TfHmEtqEioEGsZWX-1" vertex="1">
          <mxGeometry y="118" width="160" height="72" as="geometry" />
        </mxCell>
        <mxCell id="d1q4TfHmEtqEioEGsZWX-5" value="CelApp" style="swimlane;fontStyle=1;align=center;verticalAlign=top;childLayout=stackLayout;horizontal=1;startSize=26;horizontalStack=0;resizeParent=1;resizeParentMax=0;resizeLast=0;collapsible=1;marginBottom=0;whiteSpace=wrap;html=1;" parent="1" vertex="1">
          <mxGeometry x="130" y="154" width="160" height="86" as="geometry" />
        </mxCell>
        <mxCell id="d1q4TfHmEtqEioEGsZWX-6" value="+ field: type" style="text;strokeColor=none;fillColor=none;align=left;verticalAlign=top;spacingLeft=4;spacingRight=4;overflow=hidden;rotatable=0;points=[[0,0.5],[1,0.5]];portConstraint=eastwest;whiteSpace=wrap;html=1;" parent="d1q4TfHmEtqEioEGsZWX-5" vertex="1">
          <mxGeometry y="26" width="160" height="26" as="geometry" />
        </mxCell>
        <mxCell id="d1q4TfHmEtqEioEGsZWX-7" value="" style="line;strokeWidth=1;fillColor=none;align=left;verticalAlign=middle;spacingTop=-1;spacingLeft=3;spacingRight=3;rotatable=0;labelPosition=right;points=[];portConstraint=eastwest;strokeColor=inherit;" parent="d1q4TfHmEtqEioEGsZWX-5" vertex="1">
          <mxGeometry y="52" width="160" height="8" as="geometry" />
        </mxCell>
        <mxCell id="d1q4TfHmEtqEioEGsZWX-8" value="+ method(type): type" style="text;strokeColor=none;fillColor=none;align=left;verticalAlign=top;spacingLeft=4;spacingRight=4;overflow=hidden;rotatable=0;points=[[0,0.5],[1,0.5]];portConstraint=eastwest;whiteSpace=wrap;html=1;" parent="d1q4TfHmEtqEioEGsZWX-5" vertex="1">
          <mxGeometry y="60" width="160" height="26" as="geometry" />
        </mxCell>
        <mxCell id="d1q4TfHmEtqEioEGsZWX-9" value="&lt;i&gt;Persona&lt;/i&gt;" style="swimlane;fontStyle=1;align=center;verticalAlign=top;childLayout=stackLayout;horizontal=1;startSize=26;horizontalStack=0;resizeParent=1;resizeParentMax=0;resizeLast=0;collapsible=1;marginBottom=0;whiteSpace=wrap;html=1;" parent="1" vertex="1">
          <mxGeometry x="470" y="-420" width="190" height="108" as="geometry" />
        </mxCell>
        <mxCell id="d1q4TfHmEtqEioEGsZWX-10" value="&lt;br&gt;&lt;div&gt;-nombre&lt;br&gt;&lt;/div&gt;&lt;div&gt;-apellido&lt;/div&gt;&lt;div&gt;-dni&lt;br&gt;&lt;/div&gt;" style="text;strokeColor=none;fillColor=none;align=left;verticalAlign=top;spacingLeft=4;spacingRight=4;overflow=hidden;rotatable=0;points=[[0,0.5],[1,0.5]];portConstraint=eastwest;whiteSpace=wrap;html=1;" parent="d1q4TfHmEtqEioEGsZWX-9" vertex="1">
          <mxGeometry y="26" width="190" height="74" as="geometry" />
        </mxCell>
        <mxCell id="d1q4TfHmEtqEioEGsZWX-11" value="" style="line;strokeWidth=1;fillColor=none;align=left;verticalAlign=middle;spacingTop=-1;spacingLeft=3;spacingRight=3;rotatable=0;labelPosition=right;points=[];portConstraint=eastwest;strokeColor=inherit;" parent="d1q4TfHmEtqEioEGsZWX-9" vertex="1">
          <mxGeometry y="100" width="190" height="8" as="geometry" />
        </mxCell>
        <mxCell id="d1q4TfHmEtqEioEGsZWX-13" value="UsuarioEspecialista" style="swimlane;fontStyle=1;align=center;verticalAlign=top;childLayout=stackLayout;horizontal=1;startSize=26;horizontalStack=0;resizeParent=1;resizeParentMax=0;resizeLast=0;collapsible=1;marginBottom=0;whiteSpace=wrap;html=1;" parent="1" vertex="1">
          <mxGeometry x="880" y="-170" width="160" height="82" as="geometry" />
        </mxCell>
        <mxCell id="d1q4TfHmEtqEioEGsZWX-14" value="+ field: type" style="text;strokeColor=none;fillColor=none;align=left;verticalAlign=top;spacingLeft=4;spacingRight=4;overflow=hidden;rotatable=0;points=[[0,0.5],[1,0.5]];portConstraint=eastwest;whiteSpace=wrap;html=1;" parent="d1q4TfHmEtqEioEGsZWX-13" vertex="1">
          <mxGeometry y="26" width="160" height="22" as="geometry" />
        </mxCell>
        <mxCell id="d1q4TfHmEtqEioEGsZWX-15" value="" style="line;strokeWidth=1;fillColor=none;align=left;verticalAlign=middle;spacingTop=-1;spacingLeft=3;spacingRight=3;rotatable=0;labelPosition=right;points=[];portConstraint=eastwest;strokeColor=inherit;" parent="d1q4TfHmEtqEioEGsZWX-13" vertex="1">
          <mxGeometry y="48" width="160" height="8" as="geometry" />
        </mxCell>
        <mxCell id="d1q4TfHmEtqEioEGsZWX-16" value="+ method(type): type" style="text;strokeColor=none;fillColor=none;align=left;verticalAlign=top;spacingLeft=4;spacingRight=4;overflow=hidden;rotatable=0;points=[[0,0.5],[1,0.5]];portConstraint=eastwest;whiteSpace=wrap;html=1;" parent="d1q4TfHmEtqEioEGsZWX-13" vertex="1">
          <mxGeometry y="56" width="160" height="26" as="geometry" />
        </mxCell>
        <mxCell id="d1q4TfHmEtqEioEGsZWX-21" value="Muestra" style="swimlane;fontStyle=1;align=center;verticalAlign=top;childLayout=stackLayout;horizontal=1;startSize=26;horizontalStack=0;resizeParent=1;resizeParentMax=0;resizeLast=0;collapsible=1;marginBottom=0;whiteSpace=wrap;html=1;" parent="1" vertex="1">
          <mxGeometry x="390" y="94" width="160" height="144" as="geometry" />
        </mxCell>
        <mxCell id="d1q4TfHmEtqEioEGsZWX-22" value="&lt;div&gt;-ubicacion&lt;/div&gt;&lt;div&gt;-foto&lt;/div&gt;&lt;div&gt;-cuestionario&lt;br&gt;&lt;/div&gt;&lt;div&gt;-Usuario&lt;/div&gt;&lt;div&gt;-revisiones&lt;/div&gt;" style="text;strokeColor=none;fillColor=none;align=left;verticalAlign=top;spacingLeft=4;spacingRight=4;overflow=hidden;rotatable=0;points=[[0,0.5],[1,0.5]];portConstraint=eastwest;whiteSpace=wrap;html=1;" parent="d1q4TfHmEtqEioEGsZWX-21" vertex="1">
          <mxGeometry y="26" width="160" height="84" as="geometry" />
        </mxCell>
        <mxCell id="d1q4TfHmEtqEioEGsZWX-23" value="" style="line;strokeWidth=1;fillColor=none;align=left;verticalAlign=middle;spacingTop=-1;spacingLeft=3;spacingRight=3;rotatable=0;labelPosition=right;points=[];portConstraint=eastwest;strokeColor=inherit;" parent="d1q4TfHmEtqEioEGsZWX-21" vertex="1">
          <mxGeometry y="110" width="160" height="8" as="geometry" />
        </mxCell>
        <mxCell id="d1q4TfHmEtqEioEGsZWX-24" value="+ method(type): type" style="text;strokeColor=none;fillColor=none;align=left;verticalAlign=top;spacingLeft=4;spacingRight=4;overflow=hidden;rotatable=0;points=[[0,0.5],[1,0.5]];portConstraint=eastwest;whiteSpace=wrap;html=1;" parent="d1q4TfHmEtqEioEGsZWX-21" vertex="1">
          <mxGeometry y="118" width="160" height="26" as="geometry" />
        </mxCell>
        <mxCell id="d1q4TfHmEtqEioEGsZWX-33" value="Ubicacion" style="swimlane;fontStyle=1;align=center;verticalAlign=top;childLayout=stackLayout;horizontal=1;startSize=26;horizontalStack=0;resizeParent=1;resizeParentMax=0;resizeLast=0;collapsible=1;marginBottom=0;whiteSpace=wrap;html=1;" parent="1" vertex="1">
          <mxGeometry x="560" y="306" width="160" height="104" as="geometry" />
        </mxCell>
        <mxCell id="d1q4TfHmEtqEioEGsZWX-34" value="&lt;div&gt;-longitud&lt;/div&gt;&lt;div&gt;-latitud&lt;br&gt;&lt;/div&gt;" style="text;strokeColor=none;fillColor=none;align=left;verticalAlign=top;spacingLeft=4;spacingRight=4;overflow=hidden;rotatable=0;points=[[0,0.5],[1,0.5]];portConstraint=eastwest;whiteSpace=wrap;html=1;" parent="d1q4TfHmEtqEioEGsZWX-33" vertex="1">
          <mxGeometry y="26" width="160" height="44" as="geometry" />
        </mxCell>
        <mxCell id="d1q4TfHmEtqEioEGsZWX-35" value="" style="line;strokeWidth=1;fillColor=none;align=left;verticalAlign=middle;spacingTop=-1;spacingLeft=3;spacingRight=3;rotatable=0;labelPosition=right;points=[];portConstraint=eastwest;strokeColor=inherit;" parent="d1q4TfHmEtqEioEGsZWX-33" vertex="1">
          <mxGeometry y="70" width="160" height="8" as="geometry" />
        </mxCell>
        <mxCell id="d1q4TfHmEtqEioEGsZWX-36" value="+ method(type): type" style="text;strokeColor=none;fillColor=none;align=left;verticalAlign=top;spacingLeft=4;spacingRight=4;overflow=hidden;rotatable=0;points=[[0,0.5],[1,0.5]];portConstraint=eastwest;whiteSpace=wrap;html=1;" parent="d1q4TfHmEtqEioEGsZWX-33" vertex="1">
          <mxGeometry y="78" width="160" height="26" as="geometry" />
        </mxCell>
        <mxCell id="d1q4TfHmEtqEioEGsZWX-37" value="Gps" style="swimlane;fontStyle=1;align=center;verticalAlign=top;childLayout=stackLayout;horizontal=1;startSize=26;horizontalStack=0;resizeParent=1;resizeParentMax=0;resizeLast=0;collapsible=1;marginBottom=0;whiteSpace=wrap;html=1;" parent="1" vertex="1">
          <mxGeometry x="-60" y="570" width="160" height="86" as="geometry" />
        </mxCell>
        <mxCell id="d1q4TfHmEtqEioEGsZWX-38" value="+ field: type" style="text;strokeColor=none;fillColor=none;align=left;verticalAlign=top;spacingLeft=4;spacingRight=4;overflow=hidden;rotatable=0;points=[[0,0.5],[1,0.5]];portConstraint=eastwest;whiteSpace=wrap;html=1;" parent="d1q4TfHmEtqEioEGsZWX-37" vertex="1">
          <mxGeometry y="26" width="160" height="26" as="geometry" />
        </mxCell>
        <mxCell id="d1q4TfHmEtqEioEGsZWX-39" value="" style="line;strokeWidth=1;fillColor=none;align=left;verticalAlign=middle;spacingTop=-1;spacingLeft=3;spacingRight=3;rotatable=0;labelPosition=right;points=[];portConstraint=eastwest;strokeColor=inherit;" parent="d1q4TfHmEtqEioEGsZWX-37" vertex="1">
          <mxGeometry y="52" width="160" height="8" as="geometry" />
        </mxCell>
        <mxCell id="d1q4TfHmEtqEioEGsZWX-40" value="+ method(type): type" style="text;strokeColor=none;fillColor=none;align=left;verticalAlign=top;spacingLeft=4;spacingRight=4;overflow=hidden;rotatable=0;points=[[0,0.5],[1,0.5]];portConstraint=eastwest;whiteSpace=wrap;html=1;" parent="d1q4TfHmEtqEioEGsZWX-37" vertex="1">
          <mxGeometry y="60" width="160" height="26" as="geometry" />
        </mxCell>
        <mxCell id="d1q4TfHmEtqEioEGsZWX-41" value="Organizacion" style="swimlane;fontStyle=1;align=center;verticalAlign=top;childLayout=stackLayout;horizontal=1;startSize=26;horizontalStack=0;resizeParent=1;resizeParentMax=0;resizeLast=0;collapsible=1;marginBottom=0;whiteSpace=wrap;html=1;" parent="1" vertex="1">
          <mxGeometry x="300" y="590" width="160" height="104" as="geometry" />
        </mxCell>
        <mxCell id="d1q4TfHmEtqEioEGsZWX-42" value="&lt;div&gt;-ubicacion&lt;/div&gt;&lt;div&gt;-tipoOrganizacion&lt;br&gt;&lt;/div&gt;&lt;div&gt;&lt;br&gt;&lt;/div&gt;&lt;div&gt;-personas&lt;br&gt;&lt;/div&gt;" style="text;strokeColor=none;fillColor=none;align=left;verticalAlign=top;spacingLeft=4;spacingRight=4;overflow=hidden;rotatable=0;points=[[0,0.5],[1,0.5]];portConstraint=eastwest;whiteSpace=wrap;html=1;" parent="d1q4TfHmEtqEioEGsZWX-41" vertex="1">
          <mxGeometry y="26" width="160" height="44" as="geometry" />
        </mxCell>
        <mxCell id="d1q4TfHmEtqEioEGsZWX-43" value="" style="line;strokeWidth=1;fillColor=none;align=left;verticalAlign=middle;spacingTop=-1;spacingLeft=3;spacingRight=3;rotatable=0;labelPosition=right;points=[];portConstraint=eastwest;strokeColor=inherit;" parent="d1q4TfHmEtqEioEGsZWX-41" vertex="1">
          <mxGeometry y="70" width="160" height="8" as="geometry" />
        </mxCell>
        <mxCell id="d1q4TfHmEtqEioEGsZWX-44" value="&lt;div&gt;-Registrar():void&lt;/div&gt;&lt;div&gt;-&lt;br&gt;&lt;/div&gt;" style="text;strokeColor=none;fillColor=none;align=left;verticalAlign=top;spacingLeft=4;spacingRight=4;overflow=hidden;rotatable=0;points=[[0,0.5],[1,0.5]];portConstraint=eastwest;whiteSpace=wrap;html=1;" parent="d1q4TfHmEtqEioEGsZWX-41" vertex="1">
          <mxGeometry y="78" width="160" height="26" as="geometry" />
        </mxCell>
        <mxCell id="d1q4TfHmEtqEioEGsZWX-46" value="Envio" style="swimlane;fontStyle=1;align=center;verticalAlign=top;childLayout=stackLayout;horizontal=1;startSize=26;horizontalStack=0;resizeParent=1;resizeParentMax=0;resizeLast=0;collapsible=1;marginBottom=0;whiteSpace=wrap;html=1;" parent="1" vertex="1">
          <mxGeometry x="210" width="160" height="94" as="geometry" />
        </mxCell>
        <mxCell id="d1q4TfHmEtqEioEGsZWX-47" value="&lt;div&gt;-muestra&lt;/div&gt;&lt;div&gt;-fecha&lt;br&gt;&lt;/div&gt;" style="text;strokeColor=none;fillColor=none;align=left;verticalAlign=top;spacingLeft=4;spacingRight=4;overflow=hidden;rotatable=0;points=[[0,0.5],[1,0.5]];portConstraint=eastwest;whiteSpace=wrap;html=1;" parent="d1q4TfHmEtqEioEGsZWX-46" vertex="1">
          <mxGeometry y="26" width="160" height="34" as="geometry" />
        </mxCell>
        <mxCell id="d1q4TfHmEtqEioEGsZWX-48" value="" style="line;strokeWidth=1;fillColor=none;align=left;verticalAlign=middle;spacingTop=-1;spacingLeft=3;spacingRight=3;rotatable=0;labelPosition=right;points=[];portConstraint=eastwest;strokeColor=inherit;" parent="d1q4TfHmEtqEioEGsZWX-46" vertex="1">
          <mxGeometry y="60" width="160" height="8" as="geometry" />
        </mxCell>
        <mxCell id="d1q4TfHmEtqEioEGsZWX-49" value="+ method(type): type" style="text;strokeColor=none;fillColor=none;align=left;verticalAlign=top;spacingLeft=4;spacingRight=4;overflow=hidden;rotatable=0;points=[[0,0.5],[1,0.5]];portConstraint=eastwest;whiteSpace=wrap;html=1;" parent="d1q4TfHmEtqEioEGsZWX-46" vertex="1">
          <mxGeometry y="68" width="160" height="26" as="geometry" />
        </mxCell>
        <mxCell id="d1q4TfHmEtqEioEGsZWX-50" value="Revision" style="swimlane;fontStyle=1;align=center;verticalAlign=top;childLayout=stackLayout;horizontal=1;startSize=26;horizontalStack=0;resizeParent=1;resizeParentMax=0;resizeLast=0;collapsible=1;marginBottom=0;whiteSpace=wrap;html=1;" parent="1" vertex="1">
          <mxGeometry x="730" y="-10" width="160" height="104" as="geometry" />
        </mxCell>
        <mxCell id="d1q4TfHmEtqEioEGsZWX-51" value="&lt;div&gt;-Opiones&lt;/div&gt;&lt;div&gt;-OpinionResultante&lt;br&gt;&lt;/div&gt;" style="text;strokeColor=none;fillColor=none;align=left;verticalAlign=top;spacingLeft=4;spacingRight=4;overflow=hidden;rotatable=0;points=[[0,0.5],[1,0.5]];portConstraint=eastwest;whiteSpace=wrap;html=1;" parent="d1q4TfHmEtqEioEGsZWX-50" vertex="1">
          <mxGeometry y="26" width="160" height="44" as="geometry" />
        </mxCell>
        <mxCell id="d1q4TfHmEtqEioEGsZWX-52" value="" style="line;strokeWidth=1;fillColor=none;align=left;verticalAlign=middle;spacingTop=-1;spacingLeft=3;spacingRight=3;rotatable=0;labelPosition=right;points=[];portConstraint=eastwest;strokeColor=inherit;" parent="d1q4TfHmEtqEioEGsZWX-50" vertex="1">
          <mxGeometry y="70" width="160" height="8" as="geometry" />
        </mxCell>
        <mxCell id="d1q4TfHmEtqEioEGsZWX-53" value="+ method(type): type" style="text;strokeColor=none;fillColor=none;align=left;verticalAlign=top;spacingLeft=4;spacingRight=4;overflow=hidden;rotatable=0;points=[[0,0.5],[1,0.5]];portConstraint=eastwest;whiteSpace=wrap;html=1;" parent="d1q4TfHmEtqEioEGsZWX-50" vertex="1">
          <mxGeometry y="78" width="160" height="26" as="geometry" />
        </mxCell>
        <mxCell id="TxkJbv_n-hosGmUXxrpK-1" value="GeneradorDeUsuarios" style="swimlane;fontStyle=1;align=center;verticalAlign=top;childLayout=stackLayout;horizontal=1;startSize=26;horizontalStack=0;resizeParent=1;resizeParentMax=0;resizeLast=0;collapsible=1;marginBottom=0;whiteSpace=wrap;html=1;" parent="1" vertex="1">
          <mxGeometry x="120" y="-130" width="160" height="86" as="geometry" />
        </mxCell>
        <mxCell id="TxkJbv_n-hosGmUXxrpK-3" value="" style="line;strokeWidth=1;fillColor=none;align=left;verticalAlign=middle;spacingTop=-1;spacingLeft=3;spacingRight=3;rotatable=0;labelPosition=right;points=[];portConstraint=eastwest;strokeColor=inherit;" parent="TxkJbv_n-hosGmUXxrpK-1" vertex="1">
          <mxGeometry y="26" width="160" height="34" as="geometry" />
        </mxCell>
        <mxCell id="TxkJbv_n-hosGmUXxrpK-4" value="-GenerarUsuario():Void" style="text;strokeColor=none;fillColor=none;align=left;verticalAlign=top;spacingLeft=4;spacingRight=4;overflow=hidden;rotatable=0;points=[[0,0.5],[1,0.5]];portConstraint=eastwest;whiteSpace=wrap;html=1;" parent="TxkJbv_n-hosGmUXxrpK-1" vertex="1">
          <mxGeometry y="60" width="160" height="26" as="geometry" />
        </mxCell>
        <mxCell id="TxkJbv_n-hosGmUXxrpK-6" value="-usuarios" style="endArrow=block;endFill=1;html=1;edgeStyle=orthogonalEdgeStyle;align=left;verticalAlign=top;rounded=0;exitX=0.5;exitY=0;exitDx=0;exitDy=0;entryX=0;entryY=0.5;entryDx=0;entryDy=0;" parent="1" source="d1q4TfHmEtqEioEGsZWX-1" target="TxkJbv_n-hosGmUXxrpK-1" edge="1">
          <mxGeometry x="-0.7665" y="-30" relative="1" as="geometry">
            <mxPoint x="110" y="-20" as="sourcePoint" />
            <mxPoint x="270" y="-20" as="targetPoint" />
            <mxPoint as="offset" />
          </mxGeometry>
        </mxCell>
        <mxCell id="TxkJbv_n-hosGmUXxrpK-7" value="1" style="edgeLabel;resizable=0;html=1;align=left;verticalAlign=bottom;" parent="TxkJbv_n-hosGmUXxrpK-6" connectable="0" vertex="1">
          <mxGeometry x="-1" relative="1" as="geometry" />
        </mxCell>
        <mxCell id="TxkJbv_n-hosGmUXxrpK-8" value="name" style="endArrow=block;endFill=1;html=1;edgeStyle=orthogonalEdgeStyle;align=left;verticalAlign=top;rounded=0;exitX=1;exitY=0.5;exitDx=0;exitDy=0;entryX=0.009;entryY=1.037;entryDx=0;entryDy=0;entryPerimeter=0;" parent="1" source="TxkJbv_n-hosGmUXxrpK-1" target="9zdl3r6HdLo8IvxMVpqP-6" edge="1">
          <mxGeometry x="-1" relative="1" as="geometry">
            <mxPoint x="250" y="-10" as="sourcePoint" />
            <mxPoint x="410" y="-10" as="targetPoint" />
          </mxGeometry>
        </mxCell>
        <mxCell id="TxkJbv_n-hosGmUXxrpK-9" value="1" style="edgeLabel;resizable=0;html=1;align=left;verticalAlign=bottom;" parent="TxkJbv_n-hosGmUXxrpK-8" connectable="0" vertex="1">
          <mxGeometry x="-1" relative="1" as="geometry" />
        </mxCell>
        <mxCell id="TxkJbv_n-hosGmUXxrpK-12" value="Extends" style="endArrow=block;endSize=16;endFill=0;html=1;rounded=0;exitX=-0.019;exitY=0.909;exitDx=0;exitDy=0;exitPerimeter=0;" parent="1" source="d1q4TfHmEtqEioEGsZWX-14" edge="1">
          <mxGeometry width="160" relative="1" as="geometry">
            <mxPoint x="400" y="-100" as="sourcePoint" />
            <mxPoint x="660" y="-124" as="targetPoint" />
          </mxGeometry>
        </mxCell>
        <mxCell id="cjWLQR7C9Qx7QQM9_jkd-175" value="Text" style="edgeLabel;html=1;align=center;verticalAlign=middle;resizable=0;points=[];" vertex="1" connectable="0" parent="TxkJbv_n-hosGmUXxrpK-12">
          <mxGeometry x="0.2858" y="1" relative="1" as="geometry">
            <mxPoint as="offset" />
          </mxGeometry>
        </mxCell>
        <mxCell id="9zdl3r6HdLo8IvxMVpqP-5" value="Usuario" style="swimlane;fontStyle=1;align=center;verticalAlign=top;childLayout=stackLayout;horizontal=1;startSize=26;horizontalStack=0;resizeParent=1;resizeParentMax=0;resizeLast=0;collapsible=1;marginBottom=0;whiteSpace=wrap;html=1;" parent="1" vertex="1">
          <mxGeometry x="470" y="-180" width="190" height="160" as="geometry" />
        </mxCell>
        <mxCell id="9zdl3r6HdLo8IvxMVpqP-6" value="&lt;div&gt;-envios&lt;/div&gt;&lt;div&gt;-revisiones&lt;/div&gt;&lt;div&gt;-cantidadDeUsuarios&lt;br&gt;&lt;/div&gt;" style="text;strokeColor=none;fillColor=none;align=left;verticalAlign=top;spacingLeft=4;spacingRight=4;overflow=hidden;rotatable=0;points=[[0,0.5],[1,0.5]];portConstraint=eastwest;whiteSpace=wrap;html=1;" parent="9zdl3r6HdLo8IvxMVpqP-5" vertex="1">
          <mxGeometry y="26" width="190" height="54" as="geometry" />
        </mxCell>
        <mxCell id="9zdl3r6HdLo8IvxMVpqP-7" value="" style="line;strokeWidth=1;fillColor=none;align=left;verticalAlign=middle;spacingTop=-1;spacingLeft=3;spacingRight=3;rotatable=0;labelPosition=right;points=[];portConstraint=eastwest;strokeColor=inherit;" parent="9zdl3r6HdLo8IvxMVpqP-5" vertex="1">
          <mxGeometry y="80" width="190" height="8" as="geometry" />
        </mxCell>
        <mxCell id="9zdl3r6HdLo8IvxMVpqP-8" value="&lt;div&gt;-realizarEnvio(muestra):void&lt;/div&gt;&lt;div&gt;-realizarRevisionDeMuestra(muestra)&lt;br&gt;&lt;/div&gt;-darOpinion(muestra):revision" style="text;strokeColor=none;fillColor=none;align=left;verticalAlign=top;spacingLeft=4;spacingRight=4;overflow=hidden;rotatable=0;points=[[0,0.5],[1,0.5]];portConstraint=eastwest;whiteSpace=wrap;html=1;" parent="9zdl3r6HdLo8IvxMVpqP-5" vertex="1">
          <mxGeometry y="88" width="190" height="72" as="geometry" />
        </mxCell>
        <mxCell id="9zdl3r6HdLo8IvxMVpqP-9" value="Extends" style="endArrow=block;endSize=16;endFill=0;html=1;rounded=0;entryX=0.5;entryY=1;entryDx=0;entryDy=0;" parent="1" source="9zdl3r6HdLo8IvxMVpqP-5" target="d1q4TfHmEtqEioEGsZWX-9" edge="1">
          <mxGeometry width="160" relative="1" as="geometry">
            <mxPoint x="420" y="-170" as="sourcePoint" />
            <mxPoint x="580" y="-170" as="targetPoint" />
          </mxGeometry>
        </mxCell>
        <mxCell id="9zdl3r6HdLo8IvxMVpqP-10" value="name" style="endArrow=block;endFill=1;html=1;edgeStyle=orthogonalEdgeStyle;align=left;verticalAlign=top;rounded=0;exitX=0.417;exitY=1.298;exitDx=0;exitDy=0;exitPerimeter=0;entryX=-0.005;entryY=0.699;entryDx=0;entryDy=0;entryPerimeter=0;" parent="1" source="d1q4TfHmEtqEioEGsZWX-24" target="d1q4TfHmEtqEioEGsZWX-34" edge="1">
          <mxGeometry x="-1" relative="1" as="geometry">
            <mxPoint x="420" y="110" as="sourcePoint" />
            <mxPoint x="580" y="110" as="targetPoint" />
          </mxGeometry>
        </mxCell>
        <mxCell id="9zdl3r6HdLo8IvxMVpqP-11" value="1" style="edgeLabel;resizable=0;html=1;align=left;verticalAlign=bottom;" parent="9zdl3r6HdLo8IvxMVpqP-10" connectable="0" vertex="1">
          <mxGeometry x="-1" relative="1" as="geometry" />
        </mxCell>
        <mxCell id="9zdl3r6HdLo8IvxMVpqP-12" value="name" style="endArrow=block;endFill=1;html=1;edgeStyle=orthogonalEdgeStyle;align=left;verticalAlign=top;rounded=0;exitX=0.25;exitY=0;exitDx=0;exitDy=0;entryX=0.614;entryY=1.059;entryDx=0;entryDy=0;entryPerimeter=0;" parent="1" source="d1q4TfHmEtqEioEGsZWX-21" target="9zdl3r6HdLo8IvxMVpqP-8" edge="1">
          <mxGeometry x="-0.9285" y="19" relative="1" as="geometry">
            <mxPoint x="420" as="sourcePoint" />
            <mxPoint x="580" as="targetPoint" />
            <mxPoint as="offset" />
          </mxGeometry>
        </mxCell>
        <mxCell id="9zdl3r6HdLo8IvxMVpqP-13" value="1" style="edgeLabel;resizable=0;html=1;align=left;verticalAlign=bottom;" parent="9zdl3r6HdLo8IvxMVpqP-12" connectable="0" vertex="1">
          <mxGeometry x="-1" relative="1" as="geometry" />
        </mxCell>
        <mxCell id="9zdl3r6HdLo8IvxMVpqP-14" value="Classname" style="swimlane;fontStyle=1;align=center;verticalAlign=top;childLayout=stackLayout;horizontal=1;startSize=26;horizontalStack=0;resizeParent=1;resizeParentMax=0;resizeLast=0;collapsible=1;marginBottom=0;whiteSpace=wrap;html=1;" parent="1" vertex="1">
          <mxGeometry y="-300" width="160" height="86" as="geometry" />
        </mxCell>
        <mxCell id="9zdl3r6HdLo8IvxMVpqP-15" value="+ field: type" style="text;strokeColor=none;fillColor=none;align=left;verticalAlign=top;spacingLeft=4;spacingRight=4;overflow=hidden;rotatable=0;points=[[0,0.5],[1,0.5]];portConstraint=eastwest;whiteSpace=wrap;html=1;" parent="9zdl3r6HdLo8IvxMVpqP-14" vertex="1">
          <mxGeometry y="26" width="160" height="26" as="geometry" />
        </mxCell>
        <mxCell id="9zdl3r6HdLo8IvxMVpqP-16" value="" style="line;strokeWidth=1;fillColor=none;align=left;verticalAlign=middle;spacingTop=-1;spacingLeft=3;spacingRight=3;rotatable=0;labelPosition=right;points=[];portConstraint=eastwest;strokeColor=inherit;" parent="9zdl3r6HdLo8IvxMVpqP-14" vertex="1">
          <mxGeometry y="52" width="160" height="8" as="geometry" />
        </mxCell>
        <mxCell id="9zdl3r6HdLo8IvxMVpqP-17" value="+ method(type): type" style="text;strokeColor=none;fillColor=none;align=left;verticalAlign=top;spacingLeft=4;spacingRight=4;overflow=hidden;rotatable=0;points=[[0,0.5],[1,0.5]];portConstraint=eastwest;whiteSpace=wrap;html=1;" parent="9zdl3r6HdLo8IvxMVpqP-14" vertex="1">
          <mxGeometry y="60" width="160" height="26" as="geometry" />
        </mxCell>
        <mxCell id="9zdl3r6HdLo8IvxMVpqP-18" value="name" style="endArrow=block;endFill=1;html=1;edgeStyle=orthogonalEdgeStyle;align=left;verticalAlign=top;rounded=0;exitX=1.025;exitY=0.955;exitDx=0;exitDy=0;exitPerimeter=0;entryX=0.402;entryY=1.163;entryDx=0;entryDy=0;entryPerimeter=0;" parent="1" source="d1q4TfHmEtqEioEGsZWX-42" target="d1q4TfHmEtqEioEGsZWX-36" edge="1">
          <mxGeometry x="-1" relative="1" as="geometry">
            <mxPoint x="260" y="340" as="sourcePoint" />
            <mxPoint x="620" y="430" as="targetPoint" />
          </mxGeometry>
        </mxCell>
        <mxCell id="9zdl3r6HdLo8IvxMVpqP-19" value="1" style="edgeLabel;resizable=0;html=1;align=left;verticalAlign=bottom;" parent="9zdl3r6HdLo8IvxMVpqP-18" connectable="0" vertex="1">
          <mxGeometry x="-1" relative="1" as="geometry" />
        </mxCell>
        <mxCell id="9zdl3r6HdLo8IvxMVpqP-20" value="name" style="endArrow=block;endFill=1;html=1;edgeStyle=orthogonalEdgeStyle;align=left;verticalAlign=top;rounded=0;exitX=0;exitY=0.75;exitDx=0;exitDy=0;entryX=-0.004;entryY=0.179;entryDx=0;entryDy=0;entryPerimeter=0;" parent="1" source="d1q4TfHmEtqEioEGsZWX-41" target="d1q4TfHmEtqEioEGsZWX-10" edge="1">
          <mxGeometry x="-0.9565" y="32" relative="1" as="geometry">
            <mxPoint x="260" y="340" as="sourcePoint" />
            <mxPoint x="420" y="340" as="targetPoint" />
            <Array as="points">
              <mxPoint x="230" y="528" />
              <mxPoint x="-240" y="528" />
              <mxPoint x="-240" y="-381" />
            </Array>
            <mxPoint as="offset" />
          </mxGeometry>
        </mxCell>
        <mxCell id="9zdl3r6HdLo8IvxMVpqP-21" value="1" style="edgeLabel;resizable=0;html=1;align=left;verticalAlign=bottom;" parent="9zdl3r6HdLo8IvxMVpqP-20" connectable="0" vertex="1">
          <mxGeometry x="-1" relative="1" as="geometry" />
        </mxCell>
        <mxCell id="9zdl3r6HdLo8IvxMVpqP-22" value="ZonaDeCobertura" style="swimlane;fontStyle=1;align=center;verticalAlign=top;childLayout=stackLayout;horizontal=1;startSize=26;horizontalStack=0;resizeParent=1;resizeParentMax=0;resizeLast=0;collapsible=1;marginBottom=0;whiteSpace=wrap;html=1;" parent="1" vertex="1">
          <mxGeometry x="990" y="372" width="190" height="180" as="geometry" />
        </mxCell>
        <mxCell id="9zdl3r6HdLo8IvxMVpqP-23" value="&lt;div&gt;-nombre&lt;/div&gt;&lt;div&gt;-epicentro&lt;/div&gt;&lt;div&gt;-distanciaEpicentro&lt;br&gt;&lt;/div&gt;&lt;div&gt;-ZonasSolapadas&lt;br&gt;&lt;/div&gt;" style="text;strokeColor=none;fillColor=none;align=left;verticalAlign=top;spacingLeft=4;spacingRight=4;overflow=hidden;rotatable=0;points=[[0,0.5],[1,0.5]];portConstraint=eastwest;whiteSpace=wrap;html=1;" parent="9zdl3r6HdLo8IvxMVpqP-22" vertex="1">
          <mxGeometry y="26" width="190" height="84" as="geometry" />
        </mxCell>
        <mxCell id="9zdl3r6HdLo8IvxMVpqP-24" value="" style="line;strokeWidth=1;fillColor=none;align=left;verticalAlign=middle;spacingTop=-1;spacingLeft=3;spacingRight=3;rotatable=0;labelPosition=right;points=[];portConstraint=eastwest;strokeColor=inherit;" parent="9zdl3r6HdLo8IvxMVpqP-22" vertex="1">
          <mxGeometry y="110" width="190" height="8" as="geometry" />
        </mxCell>
        <mxCell id="9zdl3r6HdLo8IvxMVpqP-25" value="-ConseguirZonasSolapadas():void" style="text;strokeColor=none;fillColor=none;align=left;verticalAlign=top;spacingLeft=4;spacingRight=4;overflow=hidden;rotatable=0;points=[[0,0.5],[1,0.5]];portConstraint=eastwest;whiteSpace=wrap;html=1;" parent="9zdl3r6HdLo8IvxMVpqP-22" vertex="1">
          <mxGeometry y="118" width="190" height="62" as="geometry" />
        </mxCell>
        <mxCell id="9zdl3r6HdLo8IvxMVpqP-26" value="Sistema" style="swimlane;fontStyle=1;align=center;verticalAlign=top;childLayout=stackLayout;horizontal=1;startSize=26;horizontalStack=0;resizeParent=1;resizeParentMax=0;resizeLast=0;collapsible=1;marginBottom=0;whiteSpace=wrap;html=1;" parent="1" vertex="1">
          <mxGeometry x="140" y="330" width="300" height="134" as="geometry" />
        </mxCell>
        <mxCell id="9zdl3r6HdLo8IvxMVpqP-27" value="&lt;div&gt;-muestras&lt;/div&gt;&lt;div&gt;-usuarios&lt;br&gt;&lt;/div&gt;&lt;div&gt;-Areas&lt;br&gt;&lt;/div&gt;&lt;div&gt;-Organizacion&lt;br&gt;&lt;/div&gt;" style="text;strokeColor=none;fillColor=none;align=left;verticalAlign=top;spacingLeft=4;spacingRight=4;overflow=hidden;rotatable=0;points=[[0,0.5],[1,0.5]];portConstraint=eastwest;whiteSpace=wrap;html=1;" parent="9zdl3r6HdLo8IvxMVpqP-26" vertex="1">
          <mxGeometry y="26" width="300" height="74" as="geometry" />
        </mxCell>
        <mxCell id="9zdl3r6HdLo8IvxMVpqP-28" value="" style="line;strokeWidth=1;fillColor=none;align=left;verticalAlign=middle;spacingTop=-1;spacingLeft=3;spacingRight=3;rotatable=0;labelPosition=right;points=[];portConstraint=eastwest;strokeColor=inherit;" parent="9zdl3r6HdLo8IvxMVpqP-26" vertex="1">
          <mxGeometry y="100" width="300" height="8" as="geometry" />
        </mxCell>
        <mxCell id="9zdl3r6HdLo8IvxMVpqP-29" value="+ method(type): type" style="text;strokeColor=none;fillColor=none;align=left;verticalAlign=top;spacingLeft=4;spacingRight=4;overflow=hidden;rotatable=0;points=[[0,0.5],[1,0.5]];portConstraint=eastwest;whiteSpace=wrap;html=1;" parent="9zdl3r6HdLo8IvxMVpqP-26" vertex="1">
          <mxGeometry y="108" width="300" height="26" as="geometry" />
        </mxCell>
        <mxCell id="9zdl3r6HdLo8IvxMVpqP-32" value="name" style="endArrow=block;endFill=1;html=1;edgeStyle=orthogonalEdgeStyle;align=left;verticalAlign=top;rounded=0;entryX=0.058;entryY=1.096;entryDx=0;entryDy=0;entryPerimeter=0;" parent="1" source="9zdl3r6HdLo8IvxMVpqP-26" target="d1q4TfHmEtqEioEGsZWX-24" edge="1">
          <mxGeometry x="-0.7763" y="60" relative="1" as="geometry">
            <mxPoint x="220" y="210" as="sourcePoint" />
            <mxPoint x="380" y="210" as="targetPoint" />
            <mxPoint as="offset" />
          </mxGeometry>
        </mxCell>
        <mxCell id="9zdl3r6HdLo8IvxMVpqP-33" value="1" style="edgeLabel;resizable=0;html=1;align=left;verticalAlign=bottom;" parent="9zdl3r6HdLo8IvxMVpqP-32" connectable="0" vertex="1">
          <mxGeometry x="-1" relative="1" as="geometry" />
        </mxCell>
        <mxCell id="9zdl3r6HdLo8IvxMVpqP-34" value="name" style="endArrow=block;endFill=1;html=1;edgeStyle=orthogonalEdgeStyle;align=left;verticalAlign=top;rounded=0;exitX=-0.005;exitY=0.942;exitDx=0;exitDy=0;exitPerimeter=0;entryX=0;entryY=0;entryDx=0;entryDy=0;" parent="1" source="9zdl3r6HdLo8IvxMVpqP-27" target="9zdl3r6HdLo8IvxMVpqP-5" edge="1">
          <mxGeometry x="-1" relative="1" as="geometry">
            <mxPoint x="340" y="210" as="sourcePoint" />
            <mxPoint x="500" y="210" as="targetPoint" />
            <Array as="points">
              <mxPoint x="-110" y="391" />
              <mxPoint x="-110" y="-190" />
              <mxPoint x="470" y="-190" />
            </Array>
          </mxGeometry>
        </mxCell>
        <mxCell id="9zdl3r6HdLo8IvxMVpqP-35" value="1" style="edgeLabel;resizable=0;html=1;align=left;verticalAlign=bottom;" parent="9zdl3r6HdLo8IvxMVpqP-34" connectable="0" vertex="1">
          <mxGeometry x="-1" relative="1" as="geometry" />
        </mxCell>
        <mxCell id="9zdl3r6HdLo8IvxMVpqP-36" value="name" style="endArrow=block;endFill=1;html=1;edgeStyle=orthogonalEdgeStyle;align=left;verticalAlign=top;rounded=0;exitX=0.562;exitY=0.038;exitDx=0;exitDy=0;exitPerimeter=0;" parent="1" source="d1q4TfHmEtqEioEGsZWX-33" target="9zdl3r6HdLo8IvxMVpqP-23" edge="1">
          <mxGeometry x="-0.7797" y="-20" relative="1" as="geometry">
            <mxPoint x="340" y="240" as="sourcePoint" />
            <mxPoint x="500" y="240" as="targetPoint" />
            <mxPoint as="offset" />
          </mxGeometry>
        </mxCell>
        <mxCell id="9zdl3r6HdLo8IvxMVpqP-37" value="1" style="edgeLabel;resizable=0;html=1;align=left;verticalAlign=bottom;" parent="9zdl3r6HdLo8IvxMVpqP-36" connectable="0" vertex="1">
          <mxGeometry x="-1" relative="1" as="geometry" />
        </mxCell>
        <mxCell id="9zdl3r6HdLo8IvxMVpqP-38" value="name" style="endArrow=block;endFill=1;html=1;edgeStyle=orthogonalEdgeStyle;align=left;verticalAlign=top;rounded=0;exitX=-0.005;exitY=1.058;exitDx=0;exitDy=0;exitPerimeter=0;entryX=1;entryY=1;entryDx=0;entryDy=0;" parent="1" source="9zdl3r6HdLo8IvxMVpqP-25" target="9zdl3r6HdLo8IvxMVpqP-26" edge="1">
          <mxGeometry x="-1" relative="1" as="geometry">
            <mxPoint x="340" y="240" as="sourcePoint" />
            <mxPoint x="500" y="240" as="targetPoint" />
            <Array as="points">
              <mxPoint x="989" y="176" />
              <mxPoint x="760" y="176" />
              <mxPoint x="760" y="470" />
              <mxPoint x="400" y="470" />
              <mxPoint x="400" y="444" />
              <mxPoint x="440" y="444" />
            </Array>
          </mxGeometry>
        </mxCell>
        <mxCell id="9zdl3r6HdLo8IvxMVpqP-39" value="1" style="edgeLabel;resizable=0;html=1;align=left;verticalAlign=bottom;" parent="9zdl3r6HdLo8IvxMVpqP-38" connectable="0" vertex="1">
          <mxGeometry x="-1" relative="1" as="geometry" />
        </mxCell>
        <mxCell id="9zdl3r6HdLo8IvxMVpqP-42" value="name" style="endArrow=block;endFill=1;html=1;edgeStyle=orthogonalEdgeStyle;align=left;verticalAlign=top;rounded=0;exitX=0.25;exitY=0;exitDx=0;exitDy=0;entryX=0.253;entryY=1.154;entryDx=0;entryDy=0;entryPerimeter=0;" parent="1" source="d1q4TfHmEtqEioEGsZWX-41" target="9zdl3r6HdLo8IvxMVpqP-29" edge="1">
          <mxGeometry x="-0.8602" y="50" relative="1" as="geometry">
            <mxPoint x="310" y="390" as="sourcePoint" />
            <mxPoint x="470" y="390" as="targetPoint" />
            <Array as="points">
              <mxPoint x="280" y="590" />
              <mxPoint x="280" y="468" />
            </Array>
            <mxPoint as="offset" />
          </mxGeometry>
        </mxCell>
        <mxCell id="9zdl3r6HdLo8IvxMVpqP-43" value="1" style="edgeLabel;resizable=0;html=1;align=left;verticalAlign=bottom;" parent="9zdl3r6HdLo8IvxMVpqP-42" connectable="0" vertex="1">
          <mxGeometry x="-1" relative="1" as="geometry" />
        </mxCell>
        <mxCell id="9zdl3r6HdLo8IvxMVpqP-46" value="&lt;p style=&quot;margin:0px;margin-top:4px;text-align:center;&quot;&gt;&lt;i&gt;&amp;lt;&amp;lt;Interface&amp;gt;&amp;gt;&lt;/i&gt;&lt;/p&gt;&lt;p style=&quot;margin:0px;margin-top:4px;text-align:center;&quot;&gt;&lt;b&gt;FuncionalidadExterna&lt;/b&gt;&lt;br&gt;&lt;/p&gt;&lt;hr size=&quot;1&quot;&gt;&lt;p style=&quot;margin:0px;margin-left:4px;&quot;&gt;+ field1: Type&lt;br&gt;+ field2: Type&lt;/p&gt;&lt;hr size=&quot;1&quot;&gt;&lt;p style=&quot;margin:0px;margin-left:4px;&quot;&gt;+ nuevoEvento(Organizacion, zonaCobertura, muestra)&lt;br&gt;&lt;/p&gt;" style="verticalAlign=top;align=left;overflow=fill;fontSize=12;fontFamily=Helvetica;html=1;whiteSpace=wrap;" parent="1" vertex="1">
          <mxGeometry x="610" y="516" width="190" height="140" as="geometry" />
        </mxCell>
        <mxCell id="9zdl3r6HdLo8IvxMVpqP-47" value="Use" style="endArrow=open;endSize=12;dashed=1;html=1;rounded=0;exitX=1;exitY=0;exitDx=0;exitDy=0;" parent="1" source="d1q4TfHmEtqEioEGsZWX-41" edge="1">
          <mxGeometry width="160" relative="1" as="geometry">
            <mxPoint x="310" y="510" as="sourcePoint" />
            <mxPoint x="600" y="590" as="targetPoint" />
          </mxGeometry>
        </mxCell>
        <mxCell id="9zdl3r6HdLo8IvxMVpqP-48" value="name" style="endArrow=block;endFill=1;html=1;edgeStyle=orthogonalEdgeStyle;align=left;verticalAlign=top;rounded=0;exitX=0.75;exitY=0;exitDx=0;exitDy=0;entryX=1;entryY=0.5;entryDx=0;entryDy=0;" parent="1" source="d1q4TfHmEtqEioEGsZWX-50" target="9zdl3r6HdLo8IvxMVpqP-8" edge="1">
          <mxGeometry x="-1" relative="1" as="geometry">
            <mxPoint x="580" y="90" as="sourcePoint" />
            <mxPoint x="740" y="90" as="targetPoint" />
          </mxGeometry>
        </mxCell>
        <mxCell id="9zdl3r6HdLo8IvxMVpqP-49" value="1" style="edgeLabel;resizable=0;html=1;align=left;verticalAlign=bottom;" parent="9zdl3r6HdLo8IvxMVpqP-48" connectable="0" vertex="1">
          <mxGeometry x="-1" relative="1" as="geometry" />
        </mxCell>
        <mxCell id="9zdl3r6HdLo8IvxMVpqP-50" value="name" style="endArrow=block;endFill=1;html=1;edgeStyle=orthogonalEdgeStyle;align=left;verticalAlign=top;rounded=0;exitX=-0.02;exitY=0.817;exitDx=0;exitDy=0;exitPerimeter=0;entryX=1;entryY=0;entryDx=0;entryDy=0;" parent="1" source="d1q4TfHmEtqEioEGsZWX-53" target="d1q4TfHmEtqEioEGsZWX-21" edge="1">
          <mxGeometry x="-1" relative="1" as="geometry">
            <mxPoint x="580" y="210" as="sourcePoint" />
            <mxPoint x="740" y="210" as="targetPoint" />
          </mxGeometry>
        </mxCell>
        <mxCell id="9zdl3r6HdLo8IvxMVpqP-51" value="1" style="edgeLabel;resizable=0;html=1;align=left;verticalAlign=bottom;" parent="9zdl3r6HdLo8IvxMVpqP-50" connectable="0" vertex="1">
          <mxGeometry x="-1" relative="1" as="geometry" />
        </mxCell>
        <mxCell id="cjWLQR7C9Qx7QQM9_jkd-96" value="Muestra" style="swimlane;fontStyle=1;align=center;verticalAlign=top;childLayout=stackLayout;horizontal=1;startSize=26;horizontalStack=0;resizeParent=1;resizeParentMax=0;resizeLast=0;collapsible=1;marginBottom=0;whiteSpace=wrap;html=1;" vertex="1" parent="1">
          <mxGeometry x="-170" y="758" width="160" height="190" as="geometry" />
        </mxCell>
        <mxCell id="cjWLQR7C9Qx7QQM9_jkd-97" value="+ especieVinchuca : string" style="text;strokeColor=none;fillColor=none;align=left;verticalAlign=top;spacingLeft=4;spacingRight=4;overflow=hidden;rotatable=0;points=[[0,0.5],[1,0.5]];portConstraint=eastwest;whiteSpace=wrap;html=1;" vertex="1" parent="cjWLQR7C9Qx7QQM9_jkd-96">
          <mxGeometry y="26" width="160" height="26" as="geometry" />
        </mxCell>
        <mxCell id="cjWLQR7C9Qx7QQM9_jkd-100" value="+ fotoVinchuca: Foto" style="text;strokeColor=none;fillColor=none;align=left;verticalAlign=top;spacingLeft=4;spacingRight=4;overflow=hidden;rotatable=0;points=[[0,0.5],[1,0.5]];portConstraint=eastwest;whiteSpace=wrap;html=1;" vertex="1" parent="cjWLQR7C9Qx7QQM9_jkd-96">
          <mxGeometry y="52" width="160" height="26" as="geometry" />
        </mxCell>
        <mxCell id="cjWLQR7C9Qx7QQM9_jkd-101" value="+ ubicacion: Ubicacion" style="text;strokeColor=none;fillColor=none;align=left;verticalAlign=top;spacingLeft=4;spacingRight=4;overflow=hidden;rotatable=0;points=[[0,0.5],[1,0.5]];portConstraint=eastwest;whiteSpace=wrap;html=1;" vertex="1" parent="cjWLQR7C9Qx7QQM9_jkd-96">
          <mxGeometry y="78" width="160" height="26" as="geometry" />
        </mxCell>
        <mxCell id="cjWLQR7C9Qx7QQM9_jkd-103" value="+ Persona: Persona" style="text;strokeColor=none;fillColor=none;align=left;verticalAlign=top;spacingLeft=4;spacingRight=4;overflow=hidden;rotatable=0;points=[[0,0.5],[1,0.5]];portConstraint=eastwest;whiteSpace=wrap;html=1;" vertex="1" parent="cjWLQR7C9Qx7QQM9_jkd-96">
          <mxGeometry y="104" width="160" height="26" as="geometry" />
        </mxCell>
        <mxCell id="cjWLQR7C9Qx7QQM9_jkd-102" value="+ verificado : boolean" style="text;strokeColor=none;fillColor=none;align=left;verticalAlign=top;spacingLeft=4;spacingRight=4;overflow=hidden;rotatable=0;points=[[0,0.5],[1,0.5]];portConstraint=eastwest;whiteSpace=wrap;html=1;" vertex="1" parent="cjWLQR7C9Qx7QQM9_jkd-96">
          <mxGeometry y="130" width="160" height="26" as="geometry" />
        </mxCell>
        <mxCell id="cjWLQR7C9Qx7QQM9_jkd-98" value="" style="line;strokeWidth=1;fillColor=none;align=left;verticalAlign=middle;spacingTop=-1;spacingLeft=3;spacingRight=3;rotatable=0;labelPosition=right;points=[];portConstraint=eastwest;strokeColor=inherit;" vertex="1" parent="cjWLQR7C9Qx7QQM9_jkd-96">
          <mxGeometry y="156" width="160" height="8" as="geometry" />
        </mxCell>
        <mxCell id="cjWLQR7C9Qx7QQM9_jkd-99" value="+ resultadoActual : string" style="text;strokeColor=none;fillColor=none;align=left;verticalAlign=top;spacingLeft=4;spacingRight=4;overflow=hidden;rotatable=0;points=[[0,0.5],[1,0.5]];portConstraint=eastwest;whiteSpace=wrap;html=1;" vertex="1" parent="cjWLQR7C9Qx7QQM9_jkd-96">
          <mxGeometry y="164" width="160" height="26" as="geometry" />
        </mxCell>
        <mxCell id="cjWLQR7C9Qx7QQM9_jkd-104" value="Foto" style="swimlane;fontStyle=1;align=center;verticalAlign=top;childLayout=stackLayout;horizontal=1;startSize=26;horizontalStack=0;resizeParent=1;resizeParentMax=0;resizeLast=0;collapsible=1;marginBottom=0;whiteSpace=wrap;html=1;" vertex="1" parent="1">
          <mxGeometry x="-540" y="780" width="220" height="112" as="geometry" />
        </mxCell>
        <mxCell id="cjWLQR7C9Qx7QQM9_jkd-105" value="+ nombre: string" style="text;strokeColor=none;fillColor=none;align=left;verticalAlign=top;spacingLeft=4;spacingRight=4;overflow=hidden;rotatable=0;points=[[0,0.5],[1,0.5]];portConstraint=eastwest;whiteSpace=wrap;html=1;" vertex="1" parent="cjWLQR7C9Qx7QQM9_jkd-104">
          <mxGeometry y="26" width="220" height="26" as="geometry" />
        </mxCell>
        <mxCell id="cjWLQR7C9Qx7QQM9_jkd-108" value="+ opiniones : ArrayLlist &amp;lt;String&amp;gt;" style="text;strokeColor=none;fillColor=none;align=left;verticalAlign=top;spacingLeft=4;spacingRight=4;overflow=hidden;rotatable=0;points=[[0,0.5],[1,0.5]];portConstraint=eastwest;whiteSpace=wrap;html=1;" vertex="1" parent="cjWLQR7C9Qx7QQM9_jkd-104">
          <mxGeometry y="52" width="220" height="26" as="geometry" />
        </mxCell>
        <mxCell id="cjWLQR7C9Qx7QQM9_jkd-106" value="" style="line;strokeWidth=1;fillColor=none;align=left;verticalAlign=middle;spacingTop=-1;spacingLeft=3;spacingRight=3;rotatable=0;labelPosition=right;points=[];portConstraint=eastwest;strokeColor=inherit;" vertex="1" parent="cjWLQR7C9Qx7QQM9_jkd-104">
          <mxGeometry y="78" width="220" height="8" as="geometry" />
        </mxCell>
        <mxCell id="cjWLQR7C9Qx7QQM9_jkd-107" value="+ method(type): type" style="text;strokeColor=none;fillColor=none;align=left;verticalAlign=top;spacingLeft=4;spacingRight=4;overflow=hidden;rotatable=0;points=[[0,0.5],[1,0.5]];portConstraint=eastwest;whiteSpace=wrap;html=1;" vertex="1" parent="cjWLQR7C9Qx7QQM9_jkd-104">
          <mxGeometry y="86" width="220" height="26" as="geometry" />
        </mxCell>
        <mxCell id="cjWLQR7C9Qx7QQM9_jkd-109" value="Ubicacion" style="swimlane;fontStyle=1;align=center;verticalAlign=top;childLayout=stackLayout;horizontal=1;startSize=26;horizontalStack=0;resizeParent=1;resizeParentMax=0;resizeLast=0;collapsible=1;marginBottom=0;whiteSpace=wrap;html=1;" vertex="1" parent="1">
          <mxGeometry x="660" y="1180" width="360" height="164" as="geometry" />
        </mxCell>
        <mxCell id="cjWLQR7C9Qx7QQM9_jkd-110" value="+ latitud: int" style="text;strokeColor=none;fillColor=none;align=left;verticalAlign=top;spacingLeft=4;spacingRight=4;overflow=hidden;rotatable=0;points=[[0,0.5],[1,0.5]];portConstraint=eastwest;whiteSpace=wrap;html=1;" vertex="1" parent="cjWLQR7C9Qx7QQM9_jkd-109">
          <mxGeometry y="26" width="360" height="26" as="geometry" />
        </mxCell>
        <mxCell id="cjWLQR7C9Qx7QQM9_jkd-113" value="+ longitud: int&amp;nbsp;" style="text;strokeColor=none;fillColor=none;align=left;verticalAlign=top;spacingLeft=4;spacingRight=4;overflow=hidden;rotatable=0;points=[[0,0.5],[1,0.5]];portConstraint=eastwest;whiteSpace=wrap;html=1;" vertex="1" parent="cjWLQR7C9Qx7QQM9_jkd-109">
          <mxGeometry y="52" width="360" height="26" as="geometry" />
        </mxCell>
        <mxCell id="cjWLQR7C9Qx7QQM9_jkd-111" value="" style="line;strokeWidth=1;fillColor=none;align=left;verticalAlign=middle;spacingTop=-1;spacingLeft=3;spacingRight=3;rotatable=0;labelPosition=right;points=[];portConstraint=eastwest;strokeColor=inherit;" vertex="1" parent="cjWLQR7C9Qx7QQM9_jkd-109">
          <mxGeometry y="78" width="360" height="8" as="geometry" />
        </mxCell>
        <mxCell id="cjWLQR7C9Qx7QQM9_jkd-112" value="+ distancia(ubicacion1,ubicacion2) type" style="text;strokeColor=none;fillColor=none;align=left;verticalAlign=top;spacingLeft=4;spacingRight=4;overflow=hidden;rotatable=0;points=[[0,0.5],[1,0.5]];portConstraint=eastwest;whiteSpace=wrap;html=1;" vertex="1" parent="cjWLQR7C9Qx7QQM9_jkd-109">
          <mxGeometry y="86" width="360" height="26" as="geometry" />
        </mxCell>
        <mxCell id="cjWLQR7C9Qx7QQM9_jkd-114" value="+ ubicacionesMasCercanas (Array&amp;lt;Ubicacion): type" style="text;strokeColor=none;fillColor=none;align=left;verticalAlign=top;spacingLeft=4;spacingRight=4;overflow=hidden;rotatable=0;points=[[0,0.5],[1,0.5]];portConstraint=eastwest;whiteSpace=wrap;html=1;" vertex="1" parent="cjWLQR7C9Qx7QQM9_jkd-109">
          <mxGeometry y="112" width="360" height="26" as="geometry" />
        </mxCell>
        <mxCell id="cjWLQR7C9Qx7QQM9_jkd-115" value="+ todasLasMuestrasCercanas(Muestra): type" style="text;strokeColor=none;fillColor=none;align=left;verticalAlign=top;spacingLeft=4;spacingRight=4;overflow=hidden;rotatable=0;points=[[0,0.5],[1,0.5]];portConstraint=eastwest;whiteSpace=wrap;html=1;" vertex="1" parent="cjWLQR7C9Qx7QQM9_jkd-109">
          <mxGeometry y="138" width="360" height="26" as="geometry" />
        </mxCell>
        <mxCell id="cjWLQR7C9Qx7QQM9_jkd-116" value="" style="text;strokeColor=none;fillColor=none;align=left;verticalAlign=middle;spacingTop=-1;spacingLeft=4;spacingRight=4;rotatable=0;labelPosition=right;points=[];portConstraint=eastwest;" vertex="1" parent="1">
          <mxGeometry x="630" y="906" width="20" height="14" as="geometry" />
        </mxCell>
        <mxCell id="cjWLQR7C9Qx7QQM9_jkd-117" value="Organizacion" style="swimlane;fontStyle=1;align=center;verticalAlign=top;childLayout=stackLayout;horizontal=1;startSize=26;horizontalStack=0;resizeParent=1;resizeParentMax=0;resizeLast=0;collapsible=1;marginBottom=0;whiteSpace=wrap;html=1;" vertex="1" parent="1">
          <mxGeometry x="660" y="880" width="270" height="190" as="geometry" />
        </mxCell>
        <mxCell id="cjWLQR7C9Qx7QQM9_jkd-118" value="+ ubicacion : ubicacion" style="text;strokeColor=none;fillColor=none;align=left;verticalAlign=top;spacingLeft=4;spacingRight=4;overflow=hidden;rotatable=0;points=[[0,0.5],[1,0.5]];portConstraint=eastwest;whiteSpace=wrap;html=1;" vertex="1" parent="cjWLQR7C9Qx7QQM9_jkd-117">
          <mxGeometry y="26" width="270" height="26" as="geometry" />
        </mxCell>
        <mxCell id="cjWLQR7C9Qx7QQM9_jkd-121" value="+ tipoDeOrganizacion: String" style="text;strokeColor=none;fillColor=none;align=left;verticalAlign=top;spacingLeft=4;spacingRight=4;overflow=hidden;rotatable=0;points=[[0,0.5],[1,0.5]];portConstraint=eastwest;whiteSpace=wrap;html=1;" vertex="1" parent="cjWLQR7C9Qx7QQM9_jkd-117">
          <mxGeometry y="52" width="270" height="26" as="geometry" />
        </mxCell>
        <mxCell id="cjWLQR7C9Qx7QQM9_jkd-122" value="+ Personas: persona" style="text;strokeColor=none;fillColor=none;align=left;verticalAlign=top;spacingLeft=4;spacingRight=4;overflow=hidden;rotatable=0;points=[[0,0.5],[1,0.5]];portConstraint=eastwest;whiteSpace=wrap;html=1;" vertex="1" parent="cjWLQR7C9Qx7QQM9_jkd-117">
          <mxGeometry y="78" width="270" height="26" as="geometry" />
        </mxCell>
        <mxCell id="cjWLQR7C9Qx7QQM9_jkd-124" value="+ zonaRegistradas: ArrayList&amp;lt;Zona&amp;gt;" style="text;strokeColor=none;fillColor=none;align=left;verticalAlign=top;spacingLeft=4;spacingRight=4;overflow=hidden;rotatable=0;points=[[0,0.5],[1,0.5]];portConstraint=eastwest;whiteSpace=wrap;html=1;" vertex="1" parent="cjWLQR7C9Qx7QQM9_jkd-117">
          <mxGeometry y="104" width="270" height="26" as="geometry" />
        </mxCell>
        <mxCell id="cjWLQR7C9Qx7QQM9_jkd-119" value="" style="line;strokeWidth=1;fillColor=none;align=left;verticalAlign=middle;spacingTop=-1;spacingLeft=3;spacingRight=3;rotatable=0;labelPosition=right;points=[];portConstraint=eastwest;strokeColor=inherit;" vertex="1" parent="cjWLQR7C9Qx7QQM9_jkd-117">
          <mxGeometry y="130" width="270" height="8" as="geometry" />
        </mxCell>
        <mxCell id="cjWLQR7C9Qx7QQM9_jkd-123" value="+ suscribirse(Zona): type" style="text;strokeColor=none;fillColor=none;align=left;verticalAlign=top;spacingLeft=4;spacingRight=4;overflow=hidden;rotatable=0;points=[[0,0.5],[1,0.5]];portConstraint=eastwest;whiteSpace=wrap;html=1;" vertex="1" parent="cjWLQR7C9Qx7QQM9_jkd-117">
          <mxGeometry y="138" width="270" height="26" as="geometry" />
        </mxCell>
        <mxCell id="cjWLQR7C9Qx7QQM9_jkd-120" value="+ desuscribirse (Zona)): type" style="text;strokeColor=none;fillColor=none;align=left;verticalAlign=top;spacingLeft=4;spacingRight=4;overflow=hidden;rotatable=0;points=[[0,0.5],[1,0.5]];portConstraint=eastwest;whiteSpace=wrap;html=1;" vertex="1" parent="cjWLQR7C9Qx7QQM9_jkd-117">
          <mxGeometry y="164" width="270" height="26" as="geometry" />
        </mxCell>
        <mxCell id="cjWLQR7C9Qx7QQM9_jkd-125" value="Use" style="endArrow=open;endSize=12;dashed=1;html=1;rounded=0;exitX=1;exitY=0;exitDx=0;exitDy=0;" edge="1" parent="1">
          <mxGeometry width="160" relative="1" as="geometry">
            <mxPoint x="930" y="930" as="sourcePoint" />
            <mxPoint x="1070" y="930" as="targetPoint" />
          </mxGeometry>
        </mxCell>
        <mxCell id="cjWLQR7C9Qx7QQM9_jkd-127" value="&lt;p style=&quot;margin:0px;margin-top:4px;text-align:center;&quot;&gt;&lt;i&gt;&amp;lt;&amp;lt;Interface&amp;gt;&amp;gt;&lt;/i&gt;&lt;/p&gt;&lt;p style=&quot;margin:0px;margin-top:4px;text-align:center;&quot;&gt;&lt;b&gt;FuncionalidadExterna&lt;/b&gt;&lt;br&gt;&lt;/p&gt;&lt;hr size=&quot;1&quot;&gt;&lt;p style=&quot;margin:0px;margin-left:4px;&quot;&gt;+ field1: Type&lt;br&gt;+ field2: Type&lt;/p&gt;&lt;hr size=&quot;1&quot;&gt;&lt;p style=&quot;margin:0px;margin-left:4px;&quot;&gt;+ nuevoEvento(Organizacion, zonaCobertura, muestra)&lt;br&gt;&lt;/p&gt;" style="verticalAlign=top;align=left;overflow=fill;fontSize=12;fontFamily=Helvetica;html=1;whiteSpace=wrap;" vertex="1" parent="1">
          <mxGeometry x="1070" y="870" width="190" height="140" as="geometry" />
        </mxCell>
        <mxCell id="cjWLQR7C9Qx7QQM9_jkd-128" value="ZonaDeCobertura" style="swimlane;fontStyle=1;align=center;verticalAlign=top;childLayout=stackLayout;horizontal=1;startSize=26;horizontalStack=0;resizeParent=1;resizeParentMax=0;resizeLast=0;collapsible=1;marginBottom=0;whiteSpace=wrap;html=1;" vertex="1" parent="1">
          <mxGeometry x="1180" y="1200" width="240" height="164" as="geometry" />
        </mxCell>
        <mxCell id="cjWLQR7C9Qx7QQM9_jkd-136" value="+ nombre: String" style="text;strokeColor=none;fillColor=none;align=left;verticalAlign=top;spacingLeft=4;spacingRight=4;overflow=hidden;rotatable=0;points=[[0,0.5],[1,0.5]];portConstraint=eastwest;whiteSpace=wrap;html=1;" vertex="1" parent="cjWLQR7C9Qx7QQM9_jkd-128">
          <mxGeometry y="26" width="240" height="26" as="geometry" />
        </mxCell>
        <mxCell id="cjWLQR7C9Qx7QQM9_jkd-129" value="+ epicentro : int&amp;nbsp;" style="text;strokeColor=none;fillColor=none;align=left;verticalAlign=top;spacingLeft=4;spacingRight=4;overflow=hidden;rotatable=0;points=[[0,0.5],[1,0.5]];portConstraint=eastwest;whiteSpace=wrap;html=1;" vertex="1" parent="cjWLQR7C9Qx7QQM9_jkd-128">
          <mxGeometry y="52" width="240" height="26" as="geometry" />
        </mxCell>
        <mxCell id="cjWLQR7C9Qx7QQM9_jkd-137" value="+ distancia : int" style="text;strokeColor=none;fillColor=none;align=left;verticalAlign=top;spacingLeft=4;spacingRight=4;overflow=hidden;rotatable=0;points=[[0,0.5],[1,0.5]];portConstraint=eastwest;whiteSpace=wrap;html=1;" vertex="1" parent="cjWLQR7C9Qx7QQM9_jkd-128">
          <mxGeometry y="78" width="240" height="26" as="geometry" />
        </mxCell>
        <mxCell id="cjWLQR7C9Qx7QQM9_jkd-138" value="+ muestras: ArrayList&amp;lt;Muestra&amp;gt;" style="text;strokeColor=none;fillColor=none;align=left;verticalAlign=top;spacingLeft=4;spacingRight=4;overflow=hidden;rotatable=0;points=[[0,0.5],[1,0.5]];portConstraint=eastwest;whiteSpace=wrap;html=1;" vertex="1" parent="cjWLQR7C9Qx7QQM9_jkd-128">
          <mxGeometry y="104" width="240" height="26" as="geometry" />
        </mxCell>
        <mxCell id="cjWLQR7C9Qx7QQM9_jkd-130" value="" style="line;strokeWidth=1;fillColor=none;align=left;verticalAlign=middle;spacingTop=-1;spacingLeft=3;spacingRight=3;rotatable=0;labelPosition=right;points=[];portConstraint=eastwest;strokeColor=inherit;" vertex="1" parent="cjWLQR7C9Qx7QQM9_jkd-128">
          <mxGeometry y="130" width="240" height="8" as="geometry" />
        </mxCell>
        <mxCell id="cjWLQR7C9Qx7QQM9_jkd-131" value="+ zonasSolapadas(): type" style="text;strokeColor=none;fillColor=none;align=left;verticalAlign=top;spacingLeft=4;spacingRight=4;overflow=hidden;rotatable=0;points=[[0,0.5],[1,0.5]];portConstraint=eastwest;whiteSpace=wrap;html=1;" vertex="1" parent="cjWLQR7C9Qx7QQM9_jkd-128">
          <mxGeometry y="138" width="240" height="26" as="geometry" />
        </mxCell>
        <mxCell id="cjWLQR7C9Qx7QQM9_jkd-159" style="edgeStyle=orthogonalEdgeStyle;rounded=0;orthogonalLoop=1;jettySize=auto;html=1;exitX=0.25;exitY=0;exitDx=0;exitDy=0;entryX=1.011;entryY=0.082;entryDx=0;entryDy=0;entryPerimeter=0;" edge="1" parent="1" source="cjWLQR7C9Qx7QQM9_jkd-139" target="cjWLQR7C9Qx7QQM9_jkd-102">
          <mxGeometry relative="1" as="geometry" />
        </mxCell>
        <mxCell id="cjWLQR7C9Qx7QQM9_jkd-161" style="edgeStyle=orthogonalEdgeStyle;rounded=0;orthogonalLoop=1;jettySize=auto;html=1;exitX=0.75;exitY=0;exitDx=0;exitDy=0;entryX=0;entryY=0.5;entryDx=0;entryDy=0;" edge="1" parent="1" source="cjWLQR7C9Qx7QQM9_jkd-139" target="cjWLQR7C9Qx7QQM9_jkd-118">
          <mxGeometry relative="1" as="geometry" />
        </mxCell>
        <mxCell id="cjWLQR7C9Qx7QQM9_jkd-139" value="Sistema" style="swimlane;fontStyle=1;align=center;verticalAlign=top;childLayout=stackLayout;horizontal=1;startSize=26;horizontalStack=0;resizeParent=1;resizeParentMax=0;resizeLast=0;collapsible=1;marginBottom=0;whiteSpace=wrap;html=1;" vertex="1" parent="1">
          <mxGeometry x="180" y="1030" width="320" height="164" as="geometry" />
        </mxCell>
        <mxCell id="cjWLQR7C9Qx7QQM9_jkd-140" value="+ muestas: ArrayList&amp;lt;Muestra&amp;gt;" style="text;strokeColor=none;fillColor=none;align=left;verticalAlign=top;spacingLeft=4;spacingRight=4;overflow=hidden;rotatable=0;points=[[0,0.5],[1,0.5]];portConstraint=eastwest;whiteSpace=wrap;html=1;" vertex="1" parent="cjWLQR7C9Qx7QQM9_jkd-139">
          <mxGeometry y="26" width="320" height="26" as="geometry" />
        </mxCell>
        <mxCell id="cjWLQR7C9Qx7QQM9_jkd-143" value="+ usuarios: ArrayList&amp;lt;Usuario&amp;gt;" style="text;strokeColor=none;fillColor=none;align=left;verticalAlign=top;spacingLeft=4;spacingRight=4;overflow=hidden;rotatable=0;points=[[0,0.5],[1,0.5]];portConstraint=eastwest;whiteSpace=wrap;html=1;" vertex="1" parent="cjWLQR7C9Qx7QQM9_jkd-139">
          <mxGeometry y="52" width="320" height="26" as="geometry" />
        </mxCell>
        <mxCell id="cjWLQR7C9Qx7QQM9_jkd-144" value="+ zonas: ArrayList&amp;lt;ZonaDeCobetura&amp;gt;" style="text;strokeColor=none;fillColor=none;align=left;verticalAlign=top;spacingLeft=4;spacingRight=4;overflow=hidden;rotatable=0;points=[[0,0.5],[1,0.5]];portConstraint=eastwest;whiteSpace=wrap;html=1;" vertex="1" parent="cjWLQR7C9Qx7QQM9_jkd-139">
          <mxGeometry y="78" width="320" height="26" as="geometry" />
        </mxCell>
        <mxCell id="cjWLQR7C9Qx7QQM9_jkd-145" value="+ organizaciones: ArrayList&amp;lt;Organizacion&amp;gt;" style="text;strokeColor=none;fillColor=none;align=left;verticalAlign=top;spacingLeft=4;spacingRight=4;overflow=hidden;rotatable=0;points=[[0,0.5],[1,0.5]];portConstraint=eastwest;whiteSpace=wrap;html=1;" vertex="1" parent="cjWLQR7C9Qx7QQM9_jkd-139">
          <mxGeometry y="104" width="320" height="26" as="geometry" />
        </mxCell>
        <mxCell id="cjWLQR7C9Qx7QQM9_jkd-141" value="" style="line;strokeWidth=1;fillColor=none;align=left;verticalAlign=middle;spacingTop=-1;spacingLeft=3;spacingRight=3;rotatable=0;labelPosition=right;points=[];portConstraint=eastwest;strokeColor=inherit;" vertex="1" parent="cjWLQR7C9Qx7QQM9_jkd-139">
          <mxGeometry y="130" width="320" height="8" as="geometry" />
        </mxCell>
        <mxCell id="cjWLQR7C9Qx7QQM9_jkd-142" value="+ method(type): type" style="text;strokeColor=none;fillColor=none;align=left;verticalAlign=top;spacingLeft=4;spacingRight=4;overflow=hidden;rotatable=0;points=[[0,0.5],[1,0.5]];portConstraint=eastwest;whiteSpace=wrap;html=1;" vertex="1" parent="cjWLQR7C9Qx7QQM9_jkd-139">
          <mxGeometry y="138" width="320" height="26" as="geometry" />
        </mxCell>
        <mxCell id="cjWLQR7C9Qx7QQM9_jkd-146" value="Usuario" style="swimlane;fontStyle=1;align=center;verticalAlign=top;childLayout=stackLayout;horizontal=1;startSize=26;horizontalStack=0;resizeParent=1;resizeParentMax=0;resizeLast=0;collapsible=1;marginBottom=0;whiteSpace=wrap;html=1;" vertex="1" parent="1">
          <mxGeometry x="-210" y="1160" width="200" height="138" as="geometry" />
        </mxCell>
        <mxCell id="cjWLQR7C9Qx7QQM9_jkd-147" value="+ cantidadDeEnvios: int" style="text;strokeColor=none;fillColor=none;align=left;verticalAlign=top;spacingLeft=4;spacingRight=4;overflow=hidden;rotatable=0;points=[[0,0.5],[1,0.5]];portConstraint=eastwest;whiteSpace=wrap;html=1;" vertex="1" parent="cjWLQR7C9Qx7QQM9_jkd-146">
          <mxGeometry y="26" width="200" height="26" as="geometry" />
        </mxCell>
        <mxCell id="cjWLQR7C9Qx7QQM9_jkd-150" value="+ cantidadDeRevisiones: int" style="text;strokeColor=none;fillColor=none;align=left;verticalAlign=top;spacingLeft=4;spacingRight=4;overflow=hidden;rotatable=0;points=[[0,0.5],[1,0.5]];portConstraint=eastwest;whiteSpace=wrap;html=1;" vertex="1" parent="cjWLQR7C9Qx7QQM9_jkd-146">
          <mxGeometry y="52" width="200" height="26" as="geometry" />
        </mxCell>
        <mxCell id="cjWLQR7C9Qx7QQM9_jkd-148" value="" style="line;strokeWidth=1;fillColor=none;align=left;verticalAlign=middle;spacingTop=-1;spacingLeft=3;spacingRight=3;rotatable=0;labelPosition=right;points=[];portConstraint=eastwest;strokeColor=inherit;" vertex="1" parent="cjWLQR7C9Qx7QQM9_jkd-146">
          <mxGeometry y="78" width="200" height="8" as="geometry" />
        </mxCell>
        <mxCell id="cjWLQR7C9Qx7QQM9_jkd-149" value="+ darOpinion(muestra): type" style="text;strokeColor=none;fillColor=none;align=left;verticalAlign=top;spacingLeft=4;spacingRight=4;overflow=hidden;rotatable=0;points=[[0,0.5],[1,0.5]];portConstraint=eastwest;whiteSpace=wrap;html=1;" vertex="1" parent="cjWLQR7C9Qx7QQM9_jkd-146">
          <mxGeometry y="86" width="200" height="26" as="geometry" />
        </mxCell>
        <mxCell id="cjWLQR7C9Qx7QQM9_jkd-151" value="+ enviarMuestra(muestra): type" style="text;strokeColor=none;fillColor=none;align=left;verticalAlign=top;spacingLeft=4;spacingRight=4;overflow=hidden;rotatable=0;points=[[0,0.5],[1,0.5]];portConstraint=eastwest;whiteSpace=wrap;html=1;" vertex="1" parent="cjWLQR7C9Qx7QQM9_jkd-146">
          <mxGeometry y="112" width="200" height="26" as="geometry" />
        </mxCell>
        <mxCell id="cjWLQR7C9Qx7QQM9_jkd-152" style="edgeStyle=orthogonalEdgeStyle;rounded=0;orthogonalLoop=1;jettySize=auto;html=1;exitX=0;exitY=0.5;exitDx=0;exitDy=0;entryX=0.618;entryY=0.004;entryDx=0;entryDy=0;entryPerimeter=0;" edge="1" parent="1" source="cjWLQR7C9Qx7QQM9_jkd-143" target="cjWLQR7C9Qx7QQM9_jkd-146">
          <mxGeometry relative="1" as="geometry" />
        </mxCell>
        <mxCell id="cjWLQR7C9Qx7QQM9_jkd-155" style="edgeStyle=orthogonalEdgeStyle;rounded=0;orthogonalLoop=1;jettySize=auto;html=1;exitX=0;exitY=0.5;exitDx=0;exitDy=0;entryX=0.104;entryY=-0.014;entryDx=0;entryDy=0;entryPerimeter=0;" edge="1" parent="1" source="cjWLQR7C9Qx7QQM9_jkd-122" target="cjWLQR7C9Qx7QQM9_jkd-109">
          <mxGeometry relative="1" as="geometry">
            <Array as="points">
              <mxPoint x="640" y="971" />
              <mxPoint x="640" y="1082" />
              <mxPoint x="620" y="1082" />
              <mxPoint x="620" y="1178" />
            </Array>
          </mxGeometry>
        </mxCell>
        <mxCell id="cjWLQR7C9Qx7QQM9_jkd-157" style="edgeStyle=orthogonalEdgeStyle;rounded=0;orthogonalLoop=1;jettySize=auto;html=1;exitX=1;exitY=0.5;exitDx=0;exitDy=0;entryX=0;entryY=0.5;entryDx=0;entryDy=0;" edge="1" parent="1" source="cjWLQR7C9Qx7QQM9_jkd-113" target="cjWLQR7C9Qx7QQM9_jkd-136">
          <mxGeometry relative="1" as="geometry" />
        </mxCell>
        <mxCell id="cjWLQR7C9Qx7QQM9_jkd-158" style="edgeStyle=orthogonalEdgeStyle;rounded=0;orthogonalLoop=1;jettySize=auto;html=1;exitX=1;exitY=0.5;exitDx=0;exitDy=0;entryX=0.311;entryY=1.016;entryDx=0;entryDy=0;entryPerimeter=0;" edge="1" parent="1" source="cjWLQR7C9Qx7QQM9_jkd-145" target="cjWLQR7C9Qx7QQM9_jkd-131">
          <mxGeometry relative="1" as="geometry">
            <Array as="points">
              <mxPoint x="550" y="1147" />
              <mxPoint x="550" y="1410" />
              <mxPoint x="1255" y="1410" />
            </Array>
          </mxGeometry>
        </mxCell>
        <mxCell id="cjWLQR7C9Qx7QQM9_jkd-160" style="edgeStyle=orthogonalEdgeStyle;rounded=0;orthogonalLoop=1;jettySize=auto;html=1;exitX=0;exitY=0.5;exitDx=0;exitDy=0;entryX=1;entryY=0.5;entryDx=0;entryDy=0;" edge="1" parent="1" source="cjWLQR7C9Qx7QQM9_jkd-100" target="cjWLQR7C9Qx7QQM9_jkd-105">
          <mxGeometry relative="1" as="geometry" />
        </mxCell>
        <mxCell id="cjWLQR7C9Qx7QQM9_jkd-162" value="observer?" style="text;html=1;align=center;verticalAlign=middle;resizable=0;points=[];autosize=1;strokeColor=none;fillColor=none;" vertex="1" parent="1">
          <mxGeometry x="700" y="828" width="80" height="30" as="geometry" />
        </mxCell>
        <mxCell id="cjWLQR7C9Qx7QQM9_jkd-163" value="state en verificado?" style="text;html=1;align=center;verticalAlign=middle;resizable=0;points=[];autosize=1;strokeColor=none;fillColor=none;" vertex="1" parent="1">
          <mxGeometry x="-205" y="958" width="130" height="30" as="geometry" />
        </mxCell>
        <mxCell id="cjWLQR7C9Qx7QQM9_jkd-164" value="state?" style="text;html=1;align=center;verticalAlign=middle;resizable=0;points=[];autosize=1;strokeColor=none;fillColor=none;" vertex="1" parent="1">
          <mxGeometry x="-320" y="1214" width="60" height="30" as="geometry" />
        </mxCell>
        <mxCell id="cjWLQR7C9Qx7QQM9_jkd-165" value="UsuarioExperto" style="swimlane;fontStyle=1;align=center;verticalAlign=top;childLayout=stackLayout;horizontal=1;startSize=26;horizontalStack=0;resizeParent=1;resizeParentMax=0;resizeLast=0;collapsible=1;marginBottom=0;whiteSpace=wrap;html=1;" vertex="1" parent="1">
          <mxGeometry x="-360" y="1370" width="160" height="86" as="geometry" />
        </mxCell>
        <mxCell id="cjWLQR7C9Qx7QQM9_jkd-166" value="+ field: type" style="text;strokeColor=none;fillColor=none;align=left;verticalAlign=top;spacingLeft=4;spacingRight=4;overflow=hidden;rotatable=0;points=[[0,0.5],[1,0.5]];portConstraint=eastwest;whiteSpace=wrap;html=1;" vertex="1" parent="cjWLQR7C9Qx7QQM9_jkd-165">
          <mxGeometry y="26" width="160" height="26" as="geometry" />
        </mxCell>
        <mxCell id="cjWLQR7C9Qx7QQM9_jkd-167" value="" style="line;strokeWidth=1;fillColor=none;align=left;verticalAlign=middle;spacingTop=-1;spacingLeft=3;spacingRight=3;rotatable=0;labelPosition=right;points=[];portConstraint=eastwest;strokeColor=inherit;" vertex="1" parent="cjWLQR7C9Qx7QQM9_jkd-165">
          <mxGeometry y="52" width="160" height="8" as="geometry" />
        </mxCell>
        <mxCell id="cjWLQR7C9Qx7QQM9_jkd-168" value="+ method(type): type" style="text;strokeColor=none;fillColor=none;align=left;verticalAlign=top;spacingLeft=4;spacingRight=4;overflow=hidden;rotatable=0;points=[[0,0.5],[1,0.5]];portConstraint=eastwest;whiteSpace=wrap;html=1;" vertex="1" parent="cjWLQR7C9Qx7QQM9_jkd-165">
          <mxGeometry y="60" width="160" height="26" as="geometry" />
        </mxCell>
        <mxCell id="cjWLQR7C9Qx7QQM9_jkd-169" value="UsuarioBasico" style="swimlane;fontStyle=1;align=center;verticalAlign=top;childLayout=stackLayout;horizontal=1;startSize=26;horizontalStack=0;resizeParent=1;resizeParentMax=0;resizeLast=0;collapsible=1;marginBottom=0;whiteSpace=wrap;html=1;" vertex="1" parent="1">
          <mxGeometry x="-100" y="1370" width="160" height="86" as="geometry" />
        </mxCell>
        <mxCell id="cjWLQR7C9Qx7QQM9_jkd-170" value="+ field: type" style="text;strokeColor=none;fillColor=none;align=left;verticalAlign=top;spacingLeft=4;spacingRight=4;overflow=hidden;rotatable=0;points=[[0,0.5],[1,0.5]];portConstraint=eastwest;whiteSpace=wrap;html=1;" vertex="1" parent="cjWLQR7C9Qx7QQM9_jkd-169">
          <mxGeometry y="26" width="160" height="26" as="geometry" />
        </mxCell>
        <mxCell id="cjWLQR7C9Qx7QQM9_jkd-171" value="" style="line;strokeWidth=1;fillColor=none;align=left;verticalAlign=middle;spacingTop=-1;spacingLeft=3;spacingRight=3;rotatable=0;labelPosition=right;points=[];portConstraint=eastwest;strokeColor=inherit;" vertex="1" parent="cjWLQR7C9Qx7QQM9_jkd-169">
          <mxGeometry y="52" width="160" height="8" as="geometry" />
        </mxCell>
        <mxCell id="cjWLQR7C9Qx7QQM9_jkd-172" value="+ method(type): type" style="text;strokeColor=none;fillColor=none;align=left;verticalAlign=top;spacingLeft=4;spacingRight=4;overflow=hidden;rotatable=0;points=[[0,0.5],[1,0.5]];portConstraint=eastwest;whiteSpace=wrap;html=1;" vertex="1" parent="cjWLQR7C9Qx7QQM9_jkd-169">
          <mxGeometry y="60" width="160" height="26" as="geometry" />
        </mxCell>
        <mxCell id="cjWLQR7C9Qx7QQM9_jkd-176" value="Extends" style="endArrow=block;endSize=16;endFill=0;html=1;rounded=0;exitX=0.71;exitY=-0.043;exitDx=0;exitDy=0;exitPerimeter=0;entryX=0.975;entryY=1.064;entryDx=0;entryDy=0;entryPerimeter=0;" edge="1" parent="1" source="cjWLQR7C9Qx7QQM9_jkd-169" target="cjWLQR7C9Qx7QQM9_jkd-151">
          <mxGeometry width="160" relative="1" as="geometry">
            <mxPoint x="180" y="1388.52" as="sourcePoint" />
            <mxPoint x="23" y="1298" as="targetPoint" />
          </mxGeometry>
        </mxCell>
        <mxCell id="cjWLQR7C9Qx7QQM9_jkd-178" value="Extends" style="endArrow=block;endSize=16;endFill=0;html=1;rounded=0;exitX=0.71;exitY=-0.043;exitDx=0;exitDy=0;exitPerimeter=0;entryX=0.033;entryY=1.101;entryDx=0;entryDy=0;entryPerimeter=0;" edge="1" parent="1" target="cjWLQR7C9Qx7QQM9_jkd-151">
          <mxGeometry width="160" relative="1" as="geometry">
            <mxPoint x="-241" y="1370" as="sourcePoint" />
            <mxPoint x="-270" y="1304" as="targetPoint" />
          </mxGeometry>
        </mxCell>
        <mxCell id="cjWLQR7C9Qx7QQM9_jkd-179" value="UsuarioEspecialista" style="swimlane;fontStyle=1;align=center;verticalAlign=top;childLayout=stackLayout;horizontal=1;startSize=26;horizontalStack=0;resizeParent=1;resizeParentMax=0;resizeLast=0;collapsible=1;marginBottom=0;whiteSpace=wrap;html=1;" vertex="1" parent="1">
          <mxGeometry x="-365" y="1560" width="160" height="86" as="geometry" />
        </mxCell>
        <mxCell id="cjWLQR7C9Qx7QQM9_jkd-180" value="+ field: type" style="text;strokeColor=none;fillColor=none;align=left;verticalAlign=top;spacingLeft=4;spacingRight=4;overflow=hidden;rotatable=0;points=[[0,0.5],[1,0.5]];portConstraint=eastwest;whiteSpace=wrap;html=1;" vertex="1" parent="cjWLQR7C9Qx7QQM9_jkd-179">
          <mxGeometry y="26" width="160" height="26" as="geometry" />
        </mxCell>
        <mxCell id="cjWLQR7C9Qx7QQM9_jkd-181" value="" style="line;strokeWidth=1;fillColor=none;align=left;verticalAlign=middle;spacingTop=-1;spacingLeft=3;spacingRight=3;rotatable=0;labelPosition=right;points=[];portConstraint=eastwest;strokeColor=inherit;" vertex="1" parent="cjWLQR7C9Qx7QQM9_jkd-179">
          <mxGeometry y="52" width="160" height="8" as="geometry" />
        </mxCell>
        <mxCell id="cjWLQR7C9Qx7QQM9_jkd-182" value="+ method(type): type" style="text;strokeColor=none;fillColor=none;align=left;verticalAlign=top;spacingLeft=4;spacingRight=4;overflow=hidden;rotatable=0;points=[[0,0.5],[1,0.5]];portConstraint=eastwest;whiteSpace=wrap;html=1;" vertex="1" parent="cjWLQR7C9Qx7QQM9_jkd-179">
          <mxGeometry y="60" width="160" height="26" as="geometry" />
        </mxCell>
        <mxCell id="cjWLQR7C9Qx7QQM9_jkd-183" value="hereda de experto?" style="text;html=1;align=center;verticalAlign=middle;resizable=0;points=[];autosize=1;strokeColor=none;fillColor=none;" vertex="1" parent="1">
          <mxGeometry x="-190" y="1570" width="130" height="30" as="geometry" />
        </mxCell>
      </root>
    </mxGraphModel>
  </diagram>
</mxfile>
